<?xml version="1.0" encoding="UTF-8"?>
<svg width="26px" height="26px" viewBox="0 0 26 26" version="1.1" xmlns="http://www.w3.org/2000/svg" xmlns:xlink="http://www.w3.org/1999/xlink">
    <title>柱状图</title>
    <defs>
        <linearGradient x1="97.8853176%" y1="0%" x2="3.25516265%" y2="100%" id="linearGradient-1">
            <stop stop-color="#BC7AFF" offset="0%"></stop>
            <stop stop-color="#7878FE" offset="100%"></stop>
        </linearGradient>
    </defs>
    <g id="图标" stroke="none" stroke-width="1" fill="none" fill-rule="evenodd">
        <g id="编组-15备份" transform="translate(-23.000000, -10.000000)" fill-rule="nonzero">
            <g id="柱状图" transform="translate(23.000000, 10.000000)">
                <rect id="矩形" fill="#000000" opacity="0" x="0" y="0" width="26" height="26"></rect>
                <path d="M7.5,10 C8.32842712,10 9,10.6715729 9,11.5 L9,20 L6,20 L6,11.5 C6,10.6715729 6.67157288,10 7.5,10 Z M13,6 C13.8284271,6 14.5,6.67157288 14.5,7.5 L14.5,20 L11.5,20 L11.5,7.5 C11.5,6.67157288 12.1715729,6 13,6 Z M18.5,9 C19.3284271,9 20,9.67157288 20,10.5 L20,20 L17,20 L17,10.5 C17,9.67157288 17.6715729,9 18.5,9 Z" id="形状结合" fill="url(#linearGradient-1)"></path>
            </g>
        </g>
    </g>
</svg>