<svg t="1715692062643" class="icon" viewBox="0 0 1024 1024" version="1.1" xmlns="http://www.w3.org/2000/svg" p-id="4654" width="200" height="200"><path d="M659.456 66.56c-61.44 0-117.248 37.888-147.456 99.328C481.28 104.448 425.472 66.56 364.032 66.56H64v717.824l1.536 26.624h300.032c121.344 0 123.392 139.264 123.392 145.408v5.632h46.592v-5.632c0-6.144 2.048-145.408 124.416-145.408h300.544V66.56h-301.056zM121.344 140.8h239.616c66.048 0 117.248 60.416 117.248 137.216v517.12c-28.16-35.84-67.584-54.272-116.224-54.272h-240.64V140.8z m536.064-4.096h242.688v607.744h-242.688c-50.176 0-90.112 18.432-118.784 55.296V275.456c0-77.824 52.224-138.752 118.784-138.752z" fill="#ffffff" p-id="4655"></path><path d="M178.688 299.008H435.2v50.176H178.688v-50.176z m0 134.144H435.2v50.176H178.688v-50.176z m0 134.144H435.2v50.176H178.688v-50.176z m409.6-268.288H844.8v50.176h-256.512v-50.176z m0 134.144H844.8v50.176h-256.512v-50.176z m0 134.144H844.8v50.176h-256.512v-50.176zM645.632 975.36l-61.44-25.088 2.048-5.12c19.968-48.64 63.488-80.384 111.616-80.384h262.144v66.56h-262.144c-20.992 0-40.448 15.36-50.176 38.912l-2.048 5.12zM378.88 974.848l-2.048-5.12c-9.728-23.552-29.184-38.912-50.176-38.912H64v-66.56h262.656c48.128 0 92.16 31.744 111.616 80.896l2.048 5.12-61.44 24.576z" fill="#ffffff" p-id="4656"></path></svg>