<?xml version="1.0" encoding="UTF-8"?>
<svg width="26px" height="26px" viewBox="0 0 26 26" version="1.1" xmlns="http://www.w3.org/2000/svg" xmlns:xlink="http://www.w3.org/1999/xlink">
    <title>场景化导航</title>
    <defs>
        <linearGradient x1="89.1765841%" y1="32.6101249%" x2="26.8843743%" y2="67.3898751%" id="linearGradient-1">
            <stop stop-color="#00CBB7" offset="0%"></stop>
            <stop stop-color="#00CDBA" offset="100%"></stop>
        </linearGradient>
    </defs>
    <g id="图标" stroke="none" stroke-width="1" fill="none" fill-rule="evenodd">
        <g id="编组-8备份" transform="translate(-22.000000, -10.000000)" fill-rule="nonzero">
            <g id="场景化导航" transform="translate(22.000000, 10.000000)">
                <rect id="矩形" fill="#000000" opacity="0" x="0" y="0" width="25.6" height="25.6"></rect>
                <path d="M20.2220895,18.6 L5.47791051,18.6 C4.14465206,18.6 3.1,17.5026862 3.1,16.1018716 L3.1,9.59812835 C3.1,8.19731378 4.14439438,7.1 5.47791051,7.1 L20.2220895,7.1 C21.5553479,7.1 22.6,8.19731378 22.6,9.59812835 L22.6,16.1018716 C22.6,17.5024155 21.5556056,18.6 20.2220895,18.6 Z M5.64575,8.52625 C4.92225,8.52625 4.3765,9.07175 4.3765,9.79525 L4.3765,15.80075 C4.3765,16.52425 4.92225,17.06975 5.64575,17.06975 L19.95025,17.06975 C20.67375,17.06975 21.2195,16.52425 21.2195,15.80075 L21.2195,9.7955 C21.2195,9.072 20.67375,8.5265 19.95025,8.5265 L5.64575,8.5265 L5.64575,8.52625 Z M7.56875,15.17275 L6.21925,15.17275 C5.93275,15.17275 5.7005,14.94025 5.7005,14.654 C5.7005,14.3675 5.93275,14.13525 6.21925,14.13525 L7.56875,14.13525 C7.85525,14.13525 8.0875002,14.36775 8.0875002,14.654 C8.08775,14.94025 7.8555,15.17275 7.56875,15.17275 Z M16.10075,12.96675 L13.43175,12.96675 C13.4235,12.96675 13.41675,12.96 13.41675,12.95175 L13.41675,10.28275 C13.41675,10.2745 13.4235,10.26775 13.43175,10.26775 L16.10075,10.26775 C16.109,10.26775 16.11575,10.2745 16.11575,10.28275 L16.11575,12.95175 C16.11575,12.96 16.109,12.96675 16.10075,12.96675 L16.10075,12.96675 Z M20.0365,12.96675 L17.36775,12.96675 C17.3595,12.96675 17.35275,12.96 17.35275,12.95175 L17.35275,10.28275 C17.35275,10.2745 17.3595,10.26775 17.36775,10.26775 L20.03675,10.26775 C20.045,10.26775 20.05175,10.2745 20.05175,10.28275 L20.05175,12.95175 C20.0515,12.96 20.04475,12.96675 20.0365,12.96675 L20.0365,12.96675 Z M8.22875,12.96675 L5.55975,12.96675 C5.5515,12.96675 5.54475,12.96 5.54475,12.95175 L5.54475,10.28275 C5.54475,10.2745 5.5515,10.26775 5.55975,10.26775 L8.22875,10.26775 C8.237,10.26775 8.24375,10.2745 8.24375,10.28275 L8.24375,12.95175 C8.24375,12.96 8.237,12.96675 8.22875,12.96675 L8.22875,12.96675 Z M12.16475,12.96675 L9.49575,12.96675 C9.4875,12.96675 9.48075,12.96 9.48075,12.95175 L9.48075,10.28275 C9.48075,10.2745 9.4875,10.26775 9.49575,10.26775 L12.16475,10.26775 C12.173,10.26775 12.17975,10.2745 12.17975,10.28275 L12.17975,12.95175 C12.17975,12.96 12.173,12.96675 12.16475,12.96675 L12.16475,12.96675 Z" id="形状" fill="url(#linearGradient-1)"></path>
            </g>
        </g>
    </g>
</svg>